<svg width="52" height="52" viewBox="0 0 52 52" fill="none" xmlns="http://www.w3.org/2000/svg">
<rect width="52" height="52" rx="26" fill="#8B5CF6" fill-opacity="0.25"/>
<rect x="6" y="6" width="40" height="40" rx="20" fill="url(#paint0_linear_audio)"/>
<path d="M18 22H22L27 17V35L22 30H18C17.4477 30 17 29.5523 17 29V23C17 22.4477 17.4477 22 18 22Z" fill="white"/>
<path d="M30.5 21C31.7 22.3 32.5 24.1 32.5 26C32.5 27.9 31.7 29.7 30.5 31" stroke="white" stroke-width="2" stroke-linecap="round" stroke-linejoin="round"/>
<path d="M33.5 18C35.5 20.1 36.5 23 36.5 26C36.5 29 35.5 31.9 33.5 34" stroke="white" stroke-width="2" stroke-linecap="round" stroke-linejoin="round"/>
<defs>
<linearGradient id="paint0_linear_audio" x1="39" y1="12.5" x2="15" y2="40.5" gradientUnits="userSpaceOnUse">
<stop stop-color="#A78BFA"/>
<stop offset="1" stop-color="#7C3AED"/>
</linearGradient>
</defs>
</svg>
